<svg xmlns="http://www.w3.org/2000/svg" width="64" height="64" viewBox="0 0 32 32" fill="none">
  <defs>
    <linearGradient id="kestrel-mono-grad" x1="4" y1="4" x2="28" y2="28" gradientUnits="userSpaceOnUse">
      <stop offset="0%" stop-color="#f7ab6d" />
      <stop offset="55%" stop-color="#e87b35" />
      <stop offset="100%" stop-color="#cf6113" />
    </linearGradient>
    <linearGradient id="kestrel-mono-accent" x1="14" y1="4" x2="28" y2="18" gradientUnits="userSpaceOnUse">
      <stop offset="0%" stop-color="#ffd2a8" />
      <stop offset="100%" stop-color="#e87b35" />
    </linearGradient>
  </defs>
  <rect width="32" height="32" rx="7" fill="#14171d" />
  <rect x="6" y="5" width="4.5" height="22" rx="1.5" fill="url(#kestrel-mono-grad)" />
  <path d="M10.5 15.5C14.5 13 20 8.5 26.5 5.5C25.5 8 23 11 19 13.5L25 10C24 12.5 21 15 16.5 17L10.5 15.5Z" fill="url(#kestrel-mono-accent)" />
  <path d="M12 16.5C16.5 15.5 22 13.5 25.5 11C23.5 14 19.5 17 15.5 18.5L12 16.5Z" fill="url(#kestrel-mono-grad)" />
  <path d="M12 17.5L21.5 26C22.2 26.6 23.2 27 24.2 27H26C26.5 27 26.8 26.4 26.4 26L16 16.5L12 17.5Z" fill="url(#kestrel-mono-grad)" />
</svg>
